<svg data-v-0dd9719b="" version="1.0" xmlns="http://www.w3.org/2000/svg" xmlns:xlink="http://www.w3.org/1999/xlink" width="100%" height="100%" viewBox="0 0 340.000000 250.000000" preserveAspectRatio="xMidYMid meet" color-interpolation-filters="sRGB" style="margin: auto;"> <rect data-v-0dd9719b="" x="0" y="0" width="100%" height="100%" fill="#fff" fill-opacity="1" class="background"></rect> <rect data-v-0dd9719b="" x="0" y="0" width="100%" height="100%" fill="url(#watermark)" fill-opacity="1" class="watermarklayer"></rect> <g data-v-0dd9719b="" fill="#2959a4" class="icon-text-wrapper icon-svg-group iconsvg" transform="translate(48.43499755859375,94.25567817687988)"><g class="iconsvg-imagesvg" transform="translate(0,0)"><g><rect fill="#2959a4" fill-opacity="0" stroke-width="2" x="0" y="0" width="60" height="61.48863997376485" class="image-rect"></rect> <svg x="0" y="0" width="60" height="61.48863997376485" filtersec="colorsb6058332173" class="image-svg-svg primary" style="overflow: visible;"><svg version="1.1" id="图层_1" xmlns="http://www.w3.org/2000/svg" xmlns:xlink="http://www.w3.org/1999/xlink" x="0px" y="0px" viewBox="0.9000015258789062 1.3300000429153442 91.0999984741211 93.36000061035156" enable-background="new 0 0 93 96" xml:space="preserve">
<path fill="#171719" d="M15.19,31.75C16.05,30.61,44.4,2.26,45.56,1.33c0.46,0.11,0.72,0.52,1.03,0.84
	c2.82,2.81,5.64,5.63,8.45,8.44C67.03,22.59,79.02,34.57,91,46.56c0.35,0.35,0.77,0.66,1,1.11c-0.68,0.92-9.46,9.73-10.57,10.59
	c-0.3-0.39-0.6-0.78-0.89-1.18c-5.32-7.34-11.89-13.31-19.72-17.87C54,35.21,46.67,32.6,38.87,31.31
	c-4.91-0.81-9.85-1.01-14.81-0.71c-2.49,0.15-4.98,0.46-7.43,0.95C16.23,31.62,15.81,31.66,15.19,31.75z"></path>
<path fill="#2959A4" d="M59.87,79.87c-4.61-12.06-12.28-21.34-23.33-27.69c-11.05-6.34-22.93-8.24-35.64-6.13
	c0.21-0.3,0.29-0.46,0.41-0.58c3.07-2.99,1.58-2.15,5.65-3.83c4.43-1.83,9.03-2.99,13.78-3.65c3.78-0.52,7.57-0.65,11.36-0.41
	c8,0.5,15.59,2.58,22.71,6.27c8.42,4.37,15.32,10.47,20.77,18.24c0.26,0.38,0.5,0.77,0.8,1.21c-0.17,0.23-0.31,0.46-0.5,0.65
	c-5.1,5.11-10.21,10.22-15.32,15.32C60.4,79.44,60.21,79.57,59.87,79.87z"></path>
<path fill="#171719" d="M2.3,52.01c1.9-0.86,9.44-0.84,14.17,0.03c9.43,1.72,17.55,5.96,24.29,12.78
	c6.13,6.21,10.09,13.63,11.94,22.12c-0.65,0.93-5.9,6.24-7.63,7.75c-0.47-0.01-0.68-0.41-0.96-0.69c-2.85-2.84-5.7-5.69-8.54-8.54
	C24.81,74.69,14.05,63.92,3.29,53.15C2.94,52.8,2.5,52.51,2.3,52.01z"></path>
</svg></svg> <!----></g></g> <g transform="translate(67,10.529321670532227)"><g data-gra="path-name" fill-rule="" class="tp-name iconsvg-namesvg"><g transform="scale(1)"><g><path d="M20.21-36.21L20.21-36.21Q23.73-36.21 24.96-35.68L24.96-35.68Q24.96-35.68 24.79-35.51L24.79-35.51Q23.91-34.28 23.91-32.17L23.91-32.17 32.52-32.17Q36.56-32.17 37.27-32.34L37.27-32.34Q37.09-31.46 37.09-28.3L37.09-28.3 37.09-27.6Q37.09-23.73 37.27-23.03L37.27-23.03Q37.09-23.03 36.74-23.03L36.74-23.03Q34.63-23.2 32.7-23.2L32.7-23.2 23.91-23.2 23.91-20.04 36.04-20.04Q39.55-20.04 41.84-20.39L41.84-20.39Q42.19-20.39 42.36-20.39L42.36-20.39 42.36-16.52Q42.19-16.52 41.66-16.7L41.66-16.7Q39.2-17.05 36.21-17.05L36.21-17.05 9.32-17.05Q5.98-17.05 3.34-16.7L3.34-16.7Q2.81-16.52 2.64-16.52L2.64-16.52 2.64-20.39Q2.81-20.39 3.16-20.39L3.16-20.39Q5.63-20.04 9.32-20.04L9.32-20.04 20.57-20.04 20.57-23.2 12.3-23.2Q10.9-23.2 8.96-23.03L8.96-23.03Q7.91-23.03 7.56-23.03L7.56-23.03Q7.91-24.26 7.91-27.42L7.91-27.42 7.91-28.3Q7.91-31.29 7.56-32.34L7.56-32.34Q9.32-32.17 11.95-32.17L11.95-32.17 20.57-32.17Q20.57-34.63 20.21-36.04L20.21-36.04Q20.21-36.21 20.21-36.21ZM20.57-25.84L20.57-29.53 11.43-29.53 11.43-25.84 20.57-25.84ZM33.4-29.53L23.91-29.53 23.91-25.84 33.4-25.84 33.4-29.53ZM13.54-14.24L13.54-14.24 31.29-14.24Q34.8-14.24 36.39-14.59L36.39-14.59Q36.21-13.54 36.21-10.2L36.21-10.2 36.21-8.79Q36.21-5.45 36.56-3.87L36.56-3.87Q36.56-3.69 36.56-3.69L36.56-3.69 31.99-3.69Q32.34-5.45 32.34-9.14L32.34-9.14 32.34-11.43 11.95-11.43 11.95-8.79Q11.95-4.04 12.3-2.99L12.3-2.99 8.09-2.99Q8.09-2.99 8.09-3.34L8.09-3.34Q8.44-5.63 8.44-8.96L8.44-8.96 8.44-9.67Q8.44-13.71 8.26-14.41L8.26-14.41Q8.44-14.41 9.14-14.41L9.14-14.41Q11.43-14.24 13.54-14.24ZM19.86-10.02L19.86-10.02Q22.85-9.84 24.43-9.32L24.43-9.32Q24.43-8.96 24.08-8.61L24.08-8.61Q23.55-8.26 23.38-7.56L23.38-7.56Q22.85 2.46 5.45 4.22L5.45 4.22Q4.39 1.76 2.64 0.18L2.64 0.18Q20.74 1.05 19.86-10.02ZM23.2-2.11L24.96-5.1Q32.87-2.46 40.43 0.53L40.43 0.53 37.97 4.22Q31.46 0.7 23.2-2.11L23.2-2.11ZM56.6-35.51L56.6-35.51Q61.52-35.51 61.52-34.98L61.52-34.98Q61.52-34.8 61.35-34.28L61.35-34.28Q60.47-32.7 60.64-31.46L60.64-31.46Q60.64-13.89 59.24-8.09L59.24-8.09Q58.01-2.81 52.03 3.16L52.03 3.16Q50.27 1.23 47.64 1.05L47.64 1.05Q53.44-3.16 55.2-7.73L55.2-7.73Q56.95-12.13 56.95-21.97L56.95-21.97 56.95-30.59Q56.95-34.1 56.6-35.51ZM79.45-35.51L79.45-35.51Q84.38-35.16 84.55-34.98L84.55-34.98Q84.55-34.98 84.38-34.63L84.38-34.63Q83.67-33.22 83.67-31.11L83.67-31.11 83.67-4.22Q83.67 0.53 84.02 3.52L84.02 3.52 79.63 3.52Q79.8 2.11 79.98 0L79.98 0Q79.98-1.93 79.98-4.22L79.98-4.22 79.98-30.76Q79.98-33.4 79.45-35.51ZM67.32-34.45L67.32-34.45Q71.89-34.1 72.07-33.93L72.07-33.93Q72.07-33.75 71.89-33.22L71.89-33.22Q71.37-31.99 71.37-31.11L71.37-31.11 71.37-4.92Q71.37 0 71.72 2.11L71.72 2.11 67.32 2.11Q68.03-0.18 67.85-4.92L67.85-4.92 67.85-29.88Q67.85-32.17 67.32-34.45ZM50.98-26.19L50.98-26.19 55.02-25.66Q54.67-24.08 54.49-22.68L54.49-22.68Q53.61-15.82 52.73-10.72L52.73-10.72Q50.45-11.43 48.52-11.25L48.52-11.25Q50.98-18.63 50.98-26.19ZM61.35-24.26L64.51-24.96Q65.74-19.16 66.62-12.83L66.62-12.83 63.11-12.13Q63.11-18.11 61.35-24.26L61.35-24.26ZM72.77-24.26L76.11-24.96Q78.22-16.7 78.57-12.66L78.57-12.66 74.88-11.78Q74.53-18.46 72.77-24.26L72.77-24.26ZM98.61-29.71L98.61-33.75Q98.61-33.93 98.96-33.75L98.96-33.75Q101.07-33.4 105.12-33.4L105.12-33.4 119.88-33.4Q123.93-33.4 126.04-33.75L126.04-33.75Q126.39-33.93 126.39-33.75L126.39-33.75 126.39-29.71Q126.39-29.53 125.86-29.71L125.86-29.71Q123.75-30.06 119.88-30.06L119.88-30.06 105.12-30.06Q101.25-30.06 99.14-29.71L99.14-29.71Q98.61-29.53 98.61-29.71L98.61-29.71ZM92.99-17.93L92.99-21.97Q94.04-21.62 99.32-21.62L99.32-21.62 124.98-21.62Q130.43-21.62 131.66-21.97L131.66-21.97 131.66-17.93Q130.61-18.28 125.16-18.28L125.16-18.28 99.49-18.28Q94.04-18.28 92.99-17.93L92.99-17.93ZM114.79-15.82L114.79-15.82Q114.79-15.64 114.43-15.29L114.43-15.29Q113.03-14.41 111.45-12.83L111.45-12.83Q110.92-12.3 109.34-10.37L109.34-10.37Q103.71-3.52 101.95-2.46L101.95-2.46Q109.34-2.64 118.3-2.81L118.3-2.81Q121.82-2.99 122.52-2.99L122.52-2.99Q120.06-6.68 116.54-10.37L116.54-10.37 120.23-12.48Q123.93-7.38 130.43 0.53L130.43 0.53 126.39 2.99Q125.86 2.11 124.98 0.88L124.98 0.88Q124.45 0 124.28-0.18L124.28-0.18Q122.52-0.18 118.83 0L118.83 0Q102.66 0.18 97.56 1.58L97.56 1.58 95.98-2.64Q102.83-4.22 109.34-17.75L109.34-17.75Q114.61-16.17 114.79-15.82ZM143.09-35.86L143.09-35.86Q148.01-35.51 148.36-34.98L148.36-34.98Q148.36-34.8 148.18-34.63L148.18-34.63Q147.66-33.93 147.48-32.7L147.48-32.7Q147.13-29.88 147.13-26.02L147.13-26.02 149.24-26.02Q153.46-26.02 155.21-26.37L155.21-26.37Q154.86-23.55 154.86-19.51L154.86-19.51 154.86-5.1Q153.63 0 160.49-0.88L160.49-0.88 168.57-0.88Q174.55-0.35 174.55-5.8L174.55-5.8Q176.66-4.04 178.77-3.52L178.77-3.52Q176.84 2.81 171.56 2.46L171.56 2.46Q164.36 2.46 156.97 2.46L156.97 2.46Q152.75 2.64 152.05 1.23L152.05 1.23Q151 0.35 151.17-5.45L151.17-5.45 151.17-22.85 147.13-22.85Q147.3-7.56 139.75 3.87L139.75 3.87Q137.99 1.93 135.88 1.05L135.88 1.05Q143.44-5.45 143.26-22.85L143.26-22.85 142.03-22.85Q139.04-22.85 137.46-22.32L137.46-22.32 137.46-26.37Q137.46-26.37 137.64-26.37L137.64-26.37Q139.39-26.02 142.03-26.02L142.03-26.02 143.44-26.02Q143.44-33.57 143.09-35.86ZM174.55-31.82L174.55-31.82Q174.55-31.46 174.38-30.06L174.38-30.06Q174.2-27.42 174.2-25.66L174.2-25.66 174.2-12.66Q174.2-8.26 174.55-6.5L174.55-6.5Q173.67-6.86 168.05-6.86L168.05-6.86 165.59-6.86Q161.37-6.86 158.38-6.5L158.38-6.5Q158.73-7.38 158.73-12.48L158.73-12.48 158.73-25.66Q158.73-30.59 158.38-31.82L158.38-31.82Q158.91-31.82 159.79-31.64L159.79-31.64Q162.07-31.46 164.36-31.46L164.36-31.46 168.57-31.46Q172.44-31.46 174.38-31.82L174.38-31.82Q174.2-31.82 174.55-31.82ZM170.51-28.3L162.25-28.3 162.25-20.74 170.51-20.74 170.51-28.3ZM170.51-17.58L162.25-17.58 162.25-10.2 170.51-10.2 170.51-17.58Z" transform="translate(-2.640000104904175, 36.209999084472656)"></path></g> <!----> <!----> <!----> <!----> <!----> <!----> <!----></g></g> <!----></g></g><defs v-gra="od"></defs></svg>